<svg width="80" height="19" viewBox="0 0 80 19" fill="none" xmlns="http://www.w3.org/2000/svg">
<path d="M3.84312e-05 18.4814L3.06827 -0.000129557H15.3051L14.7636 3.22151H6.4343L5.71236 7.62532H13.2295L12.6881 10.847H5.17091L3.90752 18.4814H3.84312e-05ZM15.9969 18.4814H11.8097L21.258 -0.000129557H26.2935L29.5964 18.4814H25.4091L23.1621 4.2232H23.0177L15.9969 18.4814ZM16.9535 11.217H26.844L26.3206 14.2671H16.4301L16.9535 11.217ZM39.0507 -0.000129557L35.9824 18.4814H32.075L35.1432 -0.000129557H39.0507ZM39.4514 18.4814L42.5197 -0.000129557H49.8112C51.207 -0.000129557 52.356 0.246532 53.2585 0.739855C54.1669 1.23318 54.8046 1.93406 55.1716 2.8425C55.5446 3.74492 55.6318 4.80977 55.4333 6.03706C55.2288 7.26436 54.7866 8.31718 54.1067 9.19554C53.4329 10.0739 52.5546 10.7507 51.4717 11.226C50.3948 11.6952 49.1464 11.9299 47.7266 11.9299H42.8445L43.386 8.78945H47.6274C48.3734 8.78945 49.0111 8.68717 49.5405 8.48262C50.0699 8.27808 50.488 7.97125 50.7949 7.56216C51.1077 7.15306 51.3122 6.64469 51.4085 6.03706C51.5108 5.4174 51.4747 4.90001 51.3002 4.4849C51.1257 4.06377 50.8099 3.74492 50.3527 3.52834C49.8954 3.30574 49.2938 3.19444 48.5478 3.19444H45.9128L43.3589 18.4814H39.4514ZM50.8219 10.0709L54.0255 18.4814H49.712L46.6076 10.0709H50.8219ZM59.5994 -0.000129557H64.4183L67.4595 12.4172H67.6761L74.8142 -0.000129557H79.6332L76.5649 18.4814H72.7748L74.7781 6.45218H74.6157L67.8656 18.3912H65.2756L62.4962 6.40706H62.3428L60.3214 18.4814H56.5312L59.5994 -0.000129557Z" fill="#170F49"/>
</svg>
