<svg width="24" height="24" viewBox="0 0 24 24" fill="none" xmlns="http://www.w3.org/2000/svg">
<path fill-rule="evenodd" clip-rule="evenodd" d="M3.42687 16.7457C1.53493 16.7457 0.00120258 18.2794 0.00120258 20.1714C0.00120258 22.0634 1.53493 23.5972 3.42687 23.5972C5.31882 23.5972 6.85254 22.0634 6.85254 20.1714C6.85254 18.2794 5.31882 16.7457 3.42687 16.7457Z" fill="#8055FA"/>
<path fill-rule="evenodd" clip-rule="evenodd" d="M3.42687 8.5264C1.53493 8.5264 0.00120258 10.06 0.00120258 11.9517C0.00120258 13.8434 1.53493 15.377 3.42687 15.377C5.31882 15.377 6.85254 13.8434 6.85254 11.9517C6.85254 10.06 5.31882 8.5264 3.42687 8.5264Z" fill="#7550FB"/>
<path fill-rule="evenodd" clip-rule="evenodd" d="M3.42687 9.05991e-05C1.53493 9.05991e-05 0.00120258 1.53384 0.00120258 3.42583C0.00120258 5.31781 1.53493 6.85156 3.42687 6.85156C5.31882 6.85156 6.85254 5.31781 6.85254 3.42583C6.85254 1.53384 5.31882 9.05991e-05 3.42687 9.05991e-05Z" fill="#6A4AFC"/>
<path fill-rule="evenodd" clip-rule="evenodd" d="M11.9508 8.5264C10.0591 8.5264 8.52556 10.06 8.52556 11.9517C8.52556 13.8434 10.0591 15.377 11.9508 15.377C13.8425 15.377 15.376 13.8434 15.376 11.9517C15.376 10.06 13.8425 8.5264 11.9508 8.5264Z" fill="#6045FD"/>
<path fill-rule="evenodd" clip-rule="evenodd" d="M11.9517 9.05991e-05C10.0601 9.05991e-05 8.52654 1.53384 8.52654 3.42583C8.52654 5.31781 10.0601 6.85156 11.9517 6.85156C13.8434 6.85156 15.377 5.31781 15.377 3.42583C15.377 1.53384 13.8434 9.05991e-05 11.9517 9.05991e-05Z" fill="#553FFE"/>
<path fill-rule="evenodd" clip-rule="evenodd" d="M20.172 9.05991e-05C18.28 9.05991e-05 16.7463 1.53384 16.7463 3.42583C16.7463 5.31781 18.28 6.85156 20.172 6.85156C22.0639 6.85156 23.5977 5.31781 23.5977 3.42583C23.5977 1.53384 22.0639 9.05991e-05 20.172 9.05991e-05Z" fill="#4A3AFF"/>
</svg>
